<svg width="186" height="100" viewBox="0 0 186 100" fill="none" xmlns="http://www.w3.org/2000/svg">
<rect width="186" height="100" fill="none"/>
<path d="M0 100V97.0967L32.3289 97.0967V41.2901L34.5233 40.1441V97.0967H186V100H0Z" fill="#EF7B25"/>
<path d="M22.1609 52.9142L13.4486 57.673V93.4294H22.1609V52.9142Z" fill="#3DB3D7"/>
<path fill-rule="evenodd" clip-rule="evenodd" d="M49.0366 93.4512V24.8417L27.245 37.2626V93.4512H32.329V41.3119L34.5234 40.1659V93.4512H49.0366ZM43.5833 34.4002L46.8748 32.4711V37.9502L43.5833 39.8794V34.4002ZM38.1408 37.59V43.0692L41.4106 41.1528V35.6736L38.1408 37.59ZM38.1408 50.0546V44.5754L41.4106 42.659V48.1381L38.1408 50.0546ZM43.5833 41.3856L46.8748 39.4565V44.9356L43.5833 46.8648V41.3856ZM38.1408 57.2755V51.7964L41.4106 49.8799V55.3591L38.1408 57.2755ZM43.5833 48.6066L46.8748 46.6774V52.1566L43.5833 54.0857V48.6066ZM38.1408 64.2764V58.7972L41.4106 56.8808V62.3599L38.1408 64.2764ZM43.5833 55.6074L46.8748 53.6782V59.1574L43.5833 61.0865V55.6074ZM38.1408 71.2399V65.7607L41.4106 63.8443V69.3235L38.1408 71.2399ZM43.5833 62.5709L46.8748 60.6418V66.1209L43.5833 68.0501V62.5709ZM38.1408 78.2034V72.7243L41.4106 70.8079V76.287L38.1408 78.2034ZM43.5833 69.5345L46.8748 67.6053V73.0845L43.5833 75.0136V69.5345ZM46.8748 74.9027L43.5833 76.8318V82.311L46.8748 80.3818V74.9027ZM43.5833 84.0182L46.8748 82.0891V87.5682L43.5833 89.4974V84.0182Z" fill="#3DB3D7"/>
<path d="M54.4899 16.0118L38.5101 24.809V0L60.2908 11.6787V93.4294H54.4899V16.0118Z" fill="#1E4585"/>
<path d="M74.1088 38.6815L65.3857 33.9446V93.4294H74.1088V38.6815Z" fill="#1E4585"/>
<path d="M130.435 52.936H127.143V86.8587H130.435V77.4862L134.966 71.9067L146.425 86.8587H150.372L136.997 69.4062L150.372 52.936H146.425L130.435 72.6261V52.936Z" fill="#3DB3D7"/>
<path fill-rule="evenodd" clip-rule="evenodd" d="M82.0716 69.9081C82.0716 59.4625 89.9257 52.2047 101.669 52.2047C113.412 52.2047 121.375 59.648 121.375 69.9081C121.375 80.1681 113.358 87.5027 101.669 87.5027C89.98 87.5027 82.0716 80.3536 82.0716 69.9081ZM100.278 55.0532V84.3483C91.1858 84.5121 84.9937 76.9153 84.9937 69.9081C84.7982 61.733 92.4242 55.0532 100.278 55.0532ZM103.244 84.3483V55.0534C110.794 55.0532 118.528 61.8205 118.528 69.9081C118.528 77.1774 111.858 84.3483 103.244 84.3483Z" fill="#3DB3D7"/>
<path fill-rule="evenodd" clip-rule="evenodd" d="M154.757 52.9361V86.8479H157.712V72.9972H167.098C172.888 72.9972 177.125 68.1948 177.125 63.1849C177.125 58.1751 173.822 52.9361 167.098 52.9361H154.757ZM166.381 55.6756H157.712V70.2576H166.381C169.043 70.2576 174.029 68.2384 174.029 63.1849C174.029 58.1314 169.423 55.6756 166.381 55.6756Z" fill="#3DB3D7"/>
</svg>