<svg width="1080" height="580" viewBox="0 0 1080 580" fill="none" xmlns="http://www.w3.org/2000/svg">
<path d="M128.676 306.072L78.0889 333.598V540.424H128.676V306.072Z" fill="#3DB3D7"/>
<path fill-rule="evenodd" clip-rule="evenodd" d="M284.729 540.55V143.692L158.197 215.538V540.55H187.717V238.961L200.458 232.332V540.55H284.729ZM253.064 198.981L272.176 187.822V219.515L253.064 230.674V198.981ZM221.463 217.432V249.125L240.449 238.04V206.347L221.463 217.432ZM221.463 289.531V257.838L240.449 246.752V278.445L221.463 289.531ZM253.064 239.387L272.176 228.228V259.921L253.064 271.08V239.387ZM221.463 331.299V299.606L240.449 288.52V320.213L221.463 331.299ZM253.064 281.155L272.176 269.996V301.689L253.064 312.848V281.155ZM221.463 371.794V340.101L240.449 329.015V360.708L221.463 371.794ZM253.064 321.65L272.176 310.491V342.184L253.064 353.343V321.65ZM221.463 412.073V380.38L240.449 369.295V400.988L221.463 412.073ZM253.064 361.929L272.176 350.77V382.463L253.064 393.622V361.929ZM221.463 452.352V420.659L240.449 409.574V441.267L221.463 452.352ZM253.064 402.208L272.176 391.049V422.742L253.064 433.901V402.208ZM272.176 433.259L253.064 444.418V476.111L272.176 464.952V433.259ZM253.064 485.986L272.176 474.828V506.521L253.064 517.68V485.986Z" fill="#3DB3D7"/>
<path d="M316.393 92.617L223.607 143.503V0L350.076 67.5529V540.424H316.393V92.617Z" fill="#1E4585"/>
<path d="M430.309 223.745L379.659 196.345V540.424H430.309V223.745Z" fill="#1E4585"/>
<path d="M498.75 450.872C498.75 454.072 497.6 456.793 495.3 459.033C493 461.273 490.24 462.393 487.02 462.393C483.88 462.393 481.14 461.293 478.8 459.093C476.48 456.873 475.32 454.182 475.32 451.022C475.32 447.822 476.46 445.102 478.74 442.862C481.02 440.622 483.78 439.502 487.02 439.502C490.18 439.502 492.92 440.612 495.24 442.832C497.58 445.032 498.75 447.712 498.75 450.872ZM477.54 451.022C477.54 453.562 478.48 455.743 480.36 457.563C482.26 459.363 484.49 460.263 487.05 460.263C489.67 460.263 491.9 459.353 493.74 457.533C495.6 455.692 496.53 453.472 496.53 450.872C496.53 448.332 495.58 446.162 493.68 444.362C491.8 442.542 489.59 441.632 487.05 441.632C484.41 441.632 482.16 442.552 480.3 444.392C478.46 446.212 477.54 448.422 477.54 451.022Z" fill="#1E4585"/>
<path d="M514.775 439.832V441.842H504.575V448.772H508.745C509.965 448.772 511.025 448.872 511.925 449.072C512.845 449.252 513.705 449.632 514.505 450.212C516.185 451.452 517.025 453.162 517.025 455.342C517.025 456.483 516.775 457.533 516.275 458.493C515.795 459.433 515.075 460.203 514.115 460.803C513.315 461.303 512.365 461.643 511.265 461.823C510.505 461.943 509.475 462.003 508.175 462.003H502.355V439.832H514.775ZM508.385 450.782H504.575V459.993H507.425C507.665 459.993 507.905 460.003 508.145 460.023C508.385 460.023 508.625 460.023 508.865 460.023C509.525 460.023 510.095 459.993 510.575 459.933C511.055 459.853 511.545 459.713 512.045 459.513C513.885 458.753 514.805 457.373 514.805 455.372C514.805 454.592 514.635 453.882 514.295 453.242C513.975 452.602 513.505 452.092 512.885 451.712C512.285 451.332 511.615 451.082 510.875 450.962C510.135 450.842 509.305 450.782 508.385 450.782Z" fill="#1E4585"/>
<path d="M520.108 462.003V439.832H522.328V459.993H530.548V439.832H532.768V459.993H540.988V439.832H543.208V459.993H544.708V462.003H520.108Z" fill="#1E4585"/>
<path d="M547.765 439.832H559.885V441.842H549.985V449.822H559.555V451.832H549.985V459.993H559.885V462.003H547.765V439.832Z" fill="#1E4585"/>
<path d="M563.849 439.832H575.099V441.842H566.069V462.003H563.849V439.832Z" fill="#1E4585"/>
<path d="M600.059 450.872C600.059 454.072 598.909 456.793 596.609 459.033C594.309 461.273 591.549 462.393 588.329 462.393C585.189 462.393 582.449 461.293 580.109 459.093C577.789 456.873 576.629 454.182 576.629 451.022C576.629 447.822 577.769 445.102 580.049 442.862C582.329 440.622 585.089 439.502 588.329 439.502C591.489 439.502 594.229 440.612 596.549 442.832C598.889 445.032 600.059 447.712 600.059 450.872ZM578.849 451.022C578.849 453.562 579.789 455.743 581.669 457.563C583.569 459.363 585.799 460.263 588.359 460.263C590.979 460.263 593.209 459.353 595.049 457.533C596.909 455.692 597.839 453.472 597.839 450.872C597.839 448.332 596.889 446.162 594.989 444.362C593.109 442.542 590.899 441.632 588.359 441.632C585.719 441.632 583.469 442.552 581.609 444.392C579.769 446.212 578.849 448.422 578.849 451.022Z" fill="#1E4585"/>
<path d="M629.023 439.832V462.003H626.803V442.502L614.233 462.003H611.983V439.832H614.203V458.223L625.993 439.832H629.023Z" fill="#1E4585"/>
<path d="M633.575 439.832H636.995L645.095 458.703L653.165 439.832H656.585V462.003H654.365V442.292L646.025 462.003H644.135L635.795 442.292V462.003H633.575V439.832Z" fill="#1E4585"/>
<path d="M668.584 458.853L658.924 439.832H661.354L669.664 456.243L676.564 439.832H679.024L669.424 462.003H667.174L668.584 458.853Z" fill="#1E4585"/>
<path d="M681.534 462.003V439.832H683.754V459.993H691.974V439.832H694.194V459.993H702.414V439.832H704.634V459.993H706.134V462.003H681.534Z" fill="#1E4585"/>
<path d="M709.19 439.832H721.31V441.842H711.41V449.822H720.98V451.832H711.41V459.993H721.31V462.003H709.19V439.832Z" fill="#1E4585"/>
<path d="M743.544 445.532C742.744 444.292 741.634 443.332 740.214 442.652C738.814 441.952 737.344 441.602 735.804 441.602C733.304 441.602 731.134 442.532 729.294 444.392C727.454 446.252 726.534 448.402 726.534 450.842C726.534 453.422 727.464 455.642 729.324 457.503C731.204 459.343 733.414 460.263 735.954 460.263C737.454 460.263 738.884 459.903 740.244 459.183C741.624 458.443 742.754 457.453 743.634 456.213H746.094C745.134 458.053 743.724 459.543 741.864 460.683C740.004 461.823 738.034 462.393 735.954 462.393C732.694 462.393 729.934 461.293 727.674 459.093C725.434 456.873 724.314 454.122 724.314 450.842C724.314 447.702 725.434 445.022 727.674 442.802C729.914 440.582 732.614 439.472 735.774 439.472C738.174 439.472 740.304 440.092 742.164 441.332C742.944 441.832 743.684 442.442 744.384 443.162C745.184 444.002 745.724 444.792 746.004 445.532H743.544Z" fill="#1E4585"/>
<path d="M752.679 441.842H747.609V439.832H759.969V441.842H754.899V462.003H752.679V441.842Z" fill="#1E4585"/>
<path d="M762.452 439.832H767.642C768.702 439.832 769.632 439.902 770.432 440.042C771.232 440.182 772.002 440.502 772.742 441.002C773.502 441.482 774.112 442.152 774.572 443.012C775.052 443.852 775.292 444.752 775.292 445.712C775.292 446.632 775.072 447.472 774.632 448.232C774.212 448.972 773.612 449.612 772.832 450.152C773.992 450.632 774.892 451.362 775.532 452.342C776.172 453.322 776.492 454.452 776.492 455.733C776.492 456.753 776.242 457.723 775.742 458.643C775.262 459.543 774.592 460.263 773.732 460.803C772.892 461.343 771.922 461.693 770.822 461.853C770.122 461.953 769.072 462.003 767.672 462.003H762.452V439.832ZM767.402 459.993H767.972C769.092 459.993 769.952 459.943 770.552 459.843C771.152 459.723 771.662 459.553 772.082 459.333C772.722 458.993 773.242 458.493 773.642 457.833C774.042 457.173 774.242 456.483 774.242 455.762C774.242 454.802 774.002 453.982 773.522 453.302C773.042 452.602 772.362 452.092 771.482 451.772C770.882 451.572 770.142 451.452 769.262 451.412C768.382 451.352 767.822 451.322 767.582 451.322H767.012H764.672V459.993H767.402ZM767.072 449.312H767.612C768.612 449.312 769.372 449.262 769.892 449.162C770.412 449.042 770.872 448.872 771.272 448.652C771.792 448.372 772.222 447.942 772.562 447.362C772.902 446.782 773.072 446.182 773.072 445.562C773.072 444.942 772.912 444.362 772.592 443.822C772.272 443.282 771.842 442.842 771.302 442.502C770.882 442.242 770.362 442.072 769.742 441.992C769.122 441.892 768.462 441.842 767.762 441.842H767.252H764.672V449.312H767.072Z" fill="#1E4585"/>
<path d="M787.299 439.832H789.759L799.269 462.003H796.869L793.659 454.562H783.339L780.129 462.003H777.729L787.299 439.832ZM792.789 452.552L788.529 442.382L784.209 452.552H792.789Z" fill="#1E4585"/>
<path d="M476.28 473.833H479.7L487.8 492.703L495.87 473.833H499.29V496.003H497.07V476.293L488.73 496.003H486.84L478.5 476.293V496.003H476.28V473.833Z" fill="#1E4585"/>
<path d="M503.849 473.833H506.069V483.583H517.559V473.833H519.779V496.003H517.559V485.593H506.069V496.003H503.849V473.833Z" fill="#1E4585"/>
<path d="M546.797 484.873C546.797 488.073 545.647 490.793 543.347 493.033C541.047 495.273 538.287 496.393 535.067 496.393C531.927 496.393 529.187 495.293 526.847 493.093C524.527 490.873 523.367 488.183 523.367 485.023C523.367 481.823 524.507 479.103 526.787 476.863C529.067 474.623 531.827 473.503 535.067 473.503C538.227 473.503 540.967 474.613 543.287 476.833C545.627 479.033 546.797 481.713 546.797 484.873ZM525.587 485.023C525.587 487.563 526.527 489.743 528.407 491.563C530.307 493.363 532.537 494.263 535.097 494.263C537.717 494.263 539.947 493.353 541.787 491.533C543.647 489.693 544.577 487.473 544.577 484.873C544.577 482.333 543.627 480.163 541.727 478.363C539.847 476.543 537.637 475.633 535.097 475.633C532.457 475.633 530.207 476.553 528.347 478.393C526.507 480.213 525.587 482.423 525.587 485.023Z" fill="#1E4585"/>
<path d="M550.401 473.833H561.651V475.843H552.621V496.003H550.401V473.833Z" fill="#1E4585"/>
<path d="M586.612 484.873C586.612 488.073 585.462 490.793 583.162 493.033C580.862 495.273 578.102 496.393 574.882 496.393C571.742 496.393 569.002 495.293 566.662 493.093C564.342 490.873 563.182 488.183 563.182 485.023C563.182 481.823 564.322 479.103 566.602 476.863C568.882 474.623 571.642 473.503 574.882 473.503C578.042 473.503 580.782 474.613 583.102 476.833C585.442 479.033 586.612 481.713 586.612 484.873ZM565.402 485.023C565.402 487.563 566.342 489.743 568.222 491.563C570.122 493.363 572.352 494.263 574.912 494.263C577.532 494.263 579.762 493.353 581.602 491.533C583.462 489.693 584.392 487.473 584.392 484.873C584.392 482.333 583.442 480.163 581.542 478.363C579.662 476.543 577.452 475.633 574.912 475.633C572.272 475.633 570.022 476.553 568.162 478.393C566.322 480.213 565.402 482.423 565.402 485.023Z" fill="#1E4585"/>
<path d="M590.216 473.833H592.436V486.583L602.666 473.833H605.486L596.726 484.633L605.486 496.003H602.726L595.316 486.403L592.436 489.943V496.003H590.216V473.833Z" fill="#1E4585"/>
<path d="M607.94 473.833H613.13C614.19 473.833 615.12 473.903 615.92 474.043C616.72 474.183 617.49 474.503 618.23 475.003C618.99 475.483 619.6 476.153 620.06 477.013C620.54 477.853 620.78 478.753 620.78 479.713C620.78 480.633 620.56 481.473 620.12 482.233C619.7 482.973 619.1 483.613 618.32 484.153C619.48 484.633 620.38 485.363 621.02 486.343C621.66 487.323 621.98 488.453 621.98 489.733C621.98 490.753 621.73 491.723 621.23 492.643C620.75 493.543 620.08 494.263 619.22 494.803C618.38 495.343 617.41 495.693 616.31 495.853C615.61 495.953 614.56 496.003 613.16 496.003H607.94V473.833ZM612.89 493.993H613.46C614.58 493.993 615.44 493.943 616.04 493.843C616.64 493.723 617.15 493.553 617.57 493.333C618.21 492.993 618.73 492.493 619.13 491.833C619.53 491.173 619.73 490.483 619.73 489.763C619.73 488.803 619.49 487.983 619.01 487.303C618.53 486.603 617.85 486.093 616.97 485.773C616.37 485.573 615.63 485.453 614.75 485.413C613.87 485.353 613.31 485.323 613.07 485.323H612.5H610.16V493.993H612.89ZM612.56 483.313H613.1C614.1 483.313 614.86 483.263 615.38 483.163C615.9 483.043 616.36 482.873 616.76 482.653C617.28 482.373 617.71 481.943 618.05 481.363C618.39 480.783 618.56 480.183 618.56 479.563C618.56 478.943 618.4 478.363 618.08 477.823C617.76 477.283 617.33 476.843 616.79 476.503C616.37 476.243 615.85 476.073 615.23 475.993C614.61 475.893 613.95 475.843 613.25 475.843H612.74H610.16V483.313H612.56Z" fill="#1E4585"/>
<path d="M632.787 473.833H635.247L644.757 496.003H642.357L639.147 488.563H628.827L625.617 496.003H623.217L632.787 473.833ZM638.277 486.553L634.017 476.383L629.697 486.553H638.277Z" fill="#1E4585"/>
<path d="M647.374 473.833H653.194C654.594 473.833 655.724 473.903 656.584 474.043C657.444 474.163 658.294 474.493 659.134 475.033C661.074 476.253 662.044 478.073 662.044 480.493C662.044 482.673 661.204 484.383 659.524 485.623C658.744 486.203 657.834 486.603 656.794 486.823C656.034 486.983 655.024 487.063 653.764 487.063H649.594V496.003H647.374V473.833ZM653.404 485.053C654.644 485.053 655.574 484.983 656.194 484.843C656.814 484.683 657.374 484.453 657.874 484.153C658.494 483.773 658.974 483.253 659.314 482.593C659.654 481.913 659.824 481.203 659.824 480.463C659.824 478.463 658.904 477.083 657.064 476.323C656.564 476.123 656.074 475.993 655.594 475.933C655.114 475.853 654.544 475.813 653.884 475.813C653.644 475.813 653.404 475.823 653.164 475.843C652.924 475.843 652.684 475.843 652.444 475.843H649.594V485.053H653.404Z" fill="#1E4585"/>
<path d="M668.128 475.843H663.058V473.833H675.418V475.843H670.348V496.003H668.128V475.843Z" fill="#1E4585"/>
<path d="M694.941 473.833V496.003H692.721V476.503L680.151 496.003H677.901V473.833H680.121V492.223L691.911 473.833H694.941Z" fill="#1E4585"/>
<path d="M699.493 473.833H705.313C706.713 473.833 707.843 473.903 708.703 474.043C709.563 474.163 710.413 474.493 711.253 475.033C713.193 476.253 714.163 478.073 714.163 480.493C714.163 482.673 713.323 484.383 711.643 485.623C710.863 486.203 709.953 486.603 708.913 486.823C708.153 486.983 707.143 487.063 705.883 487.063H701.713V496.003H699.493V473.833ZM705.523 485.053C706.763 485.053 707.693 484.983 708.313 484.843C708.933 484.683 709.493 484.453 709.993 484.153C710.613 483.773 711.093 483.253 711.433 482.593C711.773 481.913 711.943 481.203 711.943 480.463C711.943 478.463 711.023 477.083 709.183 476.323C708.683 476.123 708.193 475.993 707.713 475.933C707.233 475.853 706.663 475.813 706.003 475.813C705.763 475.813 705.523 475.823 705.283 475.843C705.043 475.843 704.803 475.843 704.563 475.843H701.713V485.053H705.523Z" fill="#1E4585"/>
<path d="M717.247 473.833H719.467V483.583H730.957V473.833H733.177V496.003H730.957V485.593H719.467V496.003H717.247V473.833Z" fill="#1E4585"/>
<path d="M737.726 496.003V473.833H739.946V482.773H744.116C745.336 482.773 746.396 482.873 747.296 483.073C748.216 483.253 749.076 483.633 749.876 484.213C751.556 485.453 752.396 487.163 752.396 489.343C752.396 490.483 752.146 491.533 751.646 492.493C751.166 493.433 750.446 494.203 749.486 494.803C748.686 495.303 747.736 495.643 746.636 495.823C745.876 495.943 744.846 496.003 743.546 496.003H737.726ZM755.486 473.833H757.706V496.003H755.486V473.833ZM743.756 484.783H739.946V493.993H742.796C743.036 493.993 743.276 494.003 743.516 494.023C743.756 494.023 743.996 494.023 744.236 494.023C744.896 494.023 745.466 493.993 745.946 493.933C746.426 493.853 746.916 493.713 747.416 493.513C749.256 492.753 750.176 491.373 750.176 489.373C750.176 488.593 750.006 487.883 749.666 487.243C749.346 486.603 748.876 486.093 748.256 485.713C747.656 485.333 746.986 485.083 746.246 484.963C745.506 484.843 744.676 484.783 743.756 484.783Z" fill="#1E4585"/>
<path d="M767.766 484.663L760.686 473.833H763.266L769.146 482.713L774.996 473.833H777.576L770.406 484.663L778.026 496.003H775.416L769.146 486.523L762.846 496.003H760.236L767.766 484.663Z" fill="#1E4585"/>
<path d="M787.768 493.993L793.498 473.833H804.028V493.993H805.528V496.003H786.598V493.993H787.768ZM801.808 493.993V475.843H795.148L790.108 493.993H801.808Z" fill="#1E4585"/>
<path d="M831.065 484.873C831.065 488.073 829.915 490.793 827.615 493.033C825.315 495.273 822.555 496.393 819.335 496.393C816.195 496.393 813.455 495.293 811.115 493.093C808.795 490.873 807.635 488.183 807.635 485.023C807.635 481.823 808.775 479.103 811.055 476.863C813.335 474.623 816.095 473.503 819.335 473.503C822.495 473.503 825.235 474.613 827.555 476.833C829.895 479.033 831.065 481.713 831.065 484.873ZM809.855 485.023C809.855 487.563 810.795 489.743 812.675 491.563C814.575 493.363 816.805 494.263 819.365 494.263C821.985 494.263 824.215 493.353 826.055 491.533C827.915 489.693 828.845 487.473 828.845 484.873C828.845 482.333 827.895 480.163 825.995 478.363C824.115 476.543 821.905 475.633 819.365 475.633C816.725 475.633 814.475 476.553 812.615 478.393C810.775 480.213 809.855 482.423 809.855 485.023Z" fill="#1E4585"/>
<path d="M834.669 473.833H838.089L846.189 492.703L854.259 473.833H857.679V496.003H855.459V476.293L847.119 496.003H845.229L836.889 476.293V496.003H834.669V473.833Z" fill="#1E4585"/>
<path d="M884.707 484.873C884.707 488.073 883.557 490.793 881.257 493.033C878.957 495.273 876.197 496.393 872.977 496.393C869.837 496.393 867.097 495.293 864.757 493.093C862.437 490.873 861.277 488.183 861.277 485.023C861.277 481.823 862.417 479.103 864.697 476.863C866.977 474.623 869.737 473.503 872.977 473.503C876.137 473.503 878.877 474.613 881.197 476.833C883.537 479.033 884.707 481.713 884.707 484.873ZM863.497 485.023C863.497 487.563 864.437 489.743 866.317 491.563C868.217 493.363 870.447 494.263 873.007 494.263C875.627 494.263 877.857 493.353 879.697 491.533C881.557 489.693 882.487 487.473 882.487 484.873C882.487 482.333 881.537 480.163 879.637 478.363C877.757 476.543 875.547 475.633 873.007 475.633C870.367 475.633 868.117 476.553 866.257 478.393C864.417 480.213 863.497 482.423 863.497 485.023Z" fill="#1E4585"/>
<path d="M888.311 473.833H893.501C894.561 473.833 895.492 473.903 896.292 474.043C897.092 474.183 897.862 474.503 898.602 475.003C899.362 475.483 899.971 476.153 900.431 477.013C900.911 477.853 901.151 478.753 901.151 479.713C901.151 480.633 900.931 481.473 900.491 482.233C900.072 482.973 899.471 483.613 898.691 484.153C899.852 484.633 900.752 485.363 901.392 486.343C902.032 487.323 902.352 488.453 902.352 489.733C902.352 490.753 902.102 491.723 901.602 492.643C901.122 493.543 900.452 494.263 899.591 494.803C898.751 495.343 897.781 495.693 896.681 495.853C895.982 495.953 894.932 496.003 893.531 496.003H888.311V473.833ZM893.262 493.993H893.831C894.952 493.993 895.812 493.943 896.411 493.843C897.012 493.723 897.522 493.553 897.941 493.333C898.582 492.993 899.102 492.493 899.501 491.833C899.902 491.173 900.102 490.483 900.102 489.763C900.102 488.803 899.862 487.983 899.382 487.303C898.902 486.603 898.221 486.093 897.341 485.773C896.742 485.573 896.001 485.453 895.121 485.413C894.242 485.353 893.682 485.323 893.441 485.323H892.871H890.531V493.993H893.262ZM892.931 483.313H893.471C894.471 483.313 895.232 483.263 895.751 483.163C896.272 483.043 896.732 482.873 897.132 482.653C897.652 482.373 898.082 481.943 898.422 481.363C898.762 480.783 898.931 480.183 898.931 479.563C898.931 478.943 898.772 478.363 898.452 477.823C898.132 477.283 897.702 476.843 897.161 476.503C896.742 476.243 896.222 476.073 895.602 475.993C894.982 475.893 894.322 475.843 893.621 475.843H893.111H890.531V483.313H892.931Z" fill="#1E4585"/>
<path d="M491.43 507.833V530.003H489.21V509.843H482.25L476.64 530.003H474.3L480.6 507.833H491.43Z" fill="#1E4585"/>
<path d="M513.037 507.833V530.003H510.817V510.503L498.247 530.003H495.997V507.833H498.217V526.223L510.007 507.833H513.037Z" fill="#1E4585"/>
<path d="M517.589 507.833H533.519V530.003H531.299V509.843H519.809V530.003H517.589V507.833Z" fill="#1E4585"/>
<path d="M538.067 507.833H550.187V509.843H540.287V517.823H549.857V519.833H540.287V527.993H550.187V530.003H538.067V507.833Z" fill="#1E4585"/>
<path d="M554.151 530.003V507.833H556.371V527.993H567.861V507.833H570.081V527.993H571.581V530.003H554.151Z" fill="#1E4585"/>
<path d="M574.63 507.833H576.85V520.583L587.08 507.833H589.9L581.14 518.633L589.9 530.003H587.14L579.73 520.403L576.85 523.943V530.003H574.63V507.833Z" fill="#1E4585"/>
<path d="M614.824 518.873C614.824 522.073 613.674 524.793 611.374 527.033C609.074 529.273 606.314 530.393 603.094 530.393C599.954 530.393 597.215 529.293 594.874 527.093C592.554 524.873 591.394 522.183 591.394 519.023C591.394 515.823 592.534 513.103 594.814 510.863C597.094 508.623 599.854 507.503 603.094 507.503C606.255 507.503 608.994 508.613 611.314 510.833C613.654 513.033 614.824 515.713 614.824 518.873ZM593.614 519.023C593.614 521.563 594.554 523.743 596.434 525.563C598.334 527.363 600.564 528.263 603.124 528.263C605.744 528.263 607.975 527.353 609.814 525.533C611.674 523.693 612.604 521.473 612.604 518.873C612.604 516.333 611.654 514.163 609.755 512.363C607.874 510.543 605.664 509.633 603.124 509.633C600.484 509.633 598.234 510.553 596.374 512.393C594.535 514.213 593.614 516.423 593.614 519.023Z" fill="#1E4585"/>
<path d="M635.469 507.833V530.003H633.249V510.503L620.679 530.003H618.429V507.833H620.649V526.223L632.439 507.833H635.469ZM624.279 503.063C624.499 503.523 624.859 503.873 625.359 504.113C625.859 504.333 626.389 504.443 626.949 504.443C627.489 504.443 628.019 504.323 628.539 504.083C629.059 503.843 629.419 503.503 629.619 503.063H631.509C631.249 504.083 630.699 504.853 629.859 505.373C629.019 505.893 628.049 506.153 626.949 506.153C625.829 506.153 624.879 505.913 624.099 505.433C623.219 504.893 622.649 504.103 622.389 503.063H624.279Z" fill="#1E4585"/>
<path d="M670.811 518.873C670.811 522.073 669.661 524.793 667.361 527.033C665.061 529.273 662.301 530.393 659.081 530.393C655.941 530.393 653.201 529.293 650.861 527.093C648.541 524.873 647.381 522.183 647.381 519.023C647.381 515.823 648.521 513.103 650.801 510.863C653.081 508.623 655.841 507.503 659.081 507.503C662.241 507.503 664.981 508.613 667.301 510.833C669.641 513.033 670.811 515.713 670.811 518.873ZM649.601 519.023C649.601 521.563 650.541 523.743 652.421 525.563C654.321 527.363 656.551 528.263 659.111 528.263C661.731 528.263 663.961 527.353 665.801 525.533C667.661 523.693 668.591 521.473 668.591 518.873C668.591 516.333 667.641 514.163 665.741 512.363C663.861 510.543 661.651 509.633 659.111 509.633C656.471 509.633 654.221 510.553 652.361 512.393C650.521 514.213 649.601 516.423 649.601 519.023Z" fill="#1E4585"/>
<path d="M686.835 507.833V509.843H676.635V516.773H680.805C682.025 516.773 683.085 516.873 683.985 517.073C684.905 517.253 685.765 517.633 686.565 518.213C688.245 519.453 689.085 521.163 689.085 523.343C689.085 524.483 688.835 525.533 688.335 526.493C687.855 527.433 687.135 528.203 686.175 528.803C685.375 529.303 684.425 529.643 683.325 529.823C682.565 529.943 681.535 530.003 680.235 530.003H674.415V507.833H686.835ZM680.445 518.783H676.635V527.993H679.485C679.725 527.993 679.965 528.003 680.205 528.023C680.445 528.023 680.685 528.023 680.925 528.023C681.585 528.023 682.155 527.993 682.635 527.933C683.115 527.853 683.605 527.713 684.105 527.513C685.945 526.753 686.865 525.373 686.865 523.373C686.865 522.593 686.695 521.883 686.355 521.243C686.035 520.603 685.565 520.093 684.945 519.713C684.345 519.333 683.675 519.083 682.935 518.963C682.195 518.843 681.365 518.783 680.445 518.783Z" fill="#1E4585"/>
<path d="M707.319 507.833V530.003H705.099V509.843H698.139L692.529 530.003H690.189L696.489 507.833H707.319Z" fill="#1E4585"/>
<path d="M719.506 507.833H721.966L731.476 530.003H729.076L725.866 522.563H715.546L712.336 530.003H709.936L719.506 507.833ZM724.996 520.553L720.736 510.383L716.416 520.553H724.996Z" fill="#1E4585"/>
<path d="M752.363 513.533C751.563 512.293 750.453 511.333 749.033 510.653C747.633 509.953 746.163 509.603 744.623 509.603C742.123 509.603 739.953 510.533 738.113 512.393C736.273 514.253 735.353 516.403 735.353 518.843C735.353 521.423 736.283 523.643 738.143 525.503C740.023 527.343 742.233 528.263 744.773 528.263C746.273 528.263 747.703 527.903 749.063 527.183C750.443 526.443 751.573 525.453 752.453 524.213H754.913C753.953 526.053 752.543 527.543 750.683 528.683C748.823 529.823 746.853 530.393 744.773 530.393C741.513 530.393 738.753 529.293 736.493 527.093C734.253 524.873 733.133 522.123 733.133 518.843C733.133 515.703 734.253 513.023 736.493 510.803C738.733 508.583 741.433 507.473 744.593 507.473C746.993 507.473 749.123 508.093 750.983 509.333C751.763 509.833 752.503 510.443 753.203 511.163C754.003 512.003 754.543 512.793 754.823 513.533H752.363Z" fill="#1E4585"/>
<path d="M761.497 509.843H756.427V507.833H768.787V509.843H763.717V530.003H761.497V509.843Z" fill="#1E4585"/>
<path d="M788.311 507.833V530.003H786.091V510.503L773.521 530.003H771.271V507.833H773.491V526.223L785.281 507.833H788.311Z" fill="#1E4585"/>
<path d="M506.64 268.833H501.776C495.077 268.833 489.232 266.487 484.24 261.793C479.291 257.057 476.816 251.319 476.816 244.577C476.816 237.751 479.248 231.948 484.112 227.169C488.976 222.39 494.864 220.001 501.776 220.001H506.64C513.509 220.001 519.376 222.39 524.24 227.169C529.147 231.905 531.6 237.708 531.6 244.577C531.6 251.276 529.125 256.993 524.176 261.729C519.227 266.465 513.381 268.833 506.64 268.833ZM506.576 224.545V264.289C511.995 264.289 516.731 262.348 520.784 258.465C524.837 254.583 526.864 249.953 526.864 244.577C526.864 239.073 524.88 234.359 520.912 230.433C516.944 226.508 512.165 224.545 506.576 224.545ZM501.84 224.545C496.208 224.545 491.408 226.508 487.44 230.433C483.515 234.316 481.552 239.031 481.552 244.577C481.552 249.996 483.557 254.647 487.568 258.529C491.621 262.369 496.379 264.289 501.84 264.289V224.545Z" fill="#3DB3D7"/>
<path d="M587.237 244.257C587.237 251.084 584.784 256.887 579.877 261.665C574.971 266.444 569.083 268.833 562.213 268.833C555.515 268.833 549.669 266.487 544.677 261.793C539.728 257.057 537.253 251.319 537.253 244.577C537.253 237.751 539.685 231.948 544.549 227.169C549.413 222.39 555.301 220.001 562.213 220.001C568.955 220.001 574.8 222.369 579.749 227.105C584.741 231.798 587.237 237.516 587.237 244.257ZM541.989 244.577C541.989 249.996 543.995 254.647 548.005 258.529C552.059 262.369 556.816 264.289 562.277 264.289C567.867 264.289 572.624 262.348 576.549 258.465C580.517 254.54 582.501 249.804 582.501 244.257C582.501 238.839 580.475 234.209 576.421 230.369C572.411 226.486 567.696 224.545 562.277 224.545C556.645 224.545 551.845 226.508 547.877 230.433C543.952 234.316 541.989 239.031 541.989 244.577Z" fill="#3DB3D7"/>
<path d="M594.926 220.705H599.662V241.505H624.174V220.705H628.91V268.001H624.174V245.793H599.662V268.001H594.926V220.705Z" fill="#3DB3D7"/>
<path d="M636.246 263.713L648.47 220.705H670.934V263.713H674.134V268.001H633.75V263.713H636.246ZM666.198 263.713V224.993H651.99L641.238 263.713H666.198Z" fill="#3DB3D7"/>
<path d="M478.864 294.705H483.6V321.906L505.424 294.705H511.44L492.752 317.746L511.44 342.002H505.552L489.744 321.522L483.6 329.074V342.002H478.864V294.705Z" fill="#3DB3D7"/>
<path d="M532.932 294.705H538.18L558.468 342.002H553.348L546.5 326.13H524.484L517.636 342.002H512.516L532.932 294.705ZM544.644 321.842L535.556 300.146L526.34 321.842H544.644Z" fill="#3DB3D7"/>
<path d="M564.051 294.705H598.035V342.002H593.299V298.994H568.787V342.002H564.051V294.705Z" fill="#3DB3D7"/>
<path d="M644.091 294.705V342.002H639.355V300.402L612.539 342.002H607.739V294.705H612.475V333.938L637.627 294.705H644.091Z" fill="#3DB3D7"/>
<path d="M660.201 298.994H649.385V294.705H675.753V298.994H664.937V342.002H660.201V298.994Z" fill="#3DB3D7"/>
<path d="M697.307 294.705H702.555L722.843 342.002H717.723L710.875 326.13H688.859L682.011 342.002H676.891L697.307 294.705ZM709.019 321.842L699.931 300.146L690.715 321.842H709.019Z" fill="#3DB3D7"/>
<path d="M760.746 294.705V342.002H756.01V298.994H741.162L729.194 342.002H724.202L737.642 294.705H760.746Z" fill="#3DB3D7"/>
<path d="M770.489 342.002V294.705H775.225V313.778H784.121C786.724 313.778 788.985 313.991 790.905 314.418C792.868 314.802 794.702 315.612 796.409 316.85C799.993 319.495 801.785 323.143 801.785 327.794C801.785 330.226 801.252 332.466 800.185 334.514C799.161 336.519 797.625 338.162 795.577 339.442C793.87 340.508 791.844 341.234 789.497 341.618C787.876 341.874 785.678 342.002 782.905 342.002H770.489ZM783.353 318.066H775.225V337.714H781.305C781.817 337.714 782.329 337.735 782.841 337.778C783.353 337.778 783.865 337.778 784.377 337.778C785.785 337.778 787.001 337.714 788.025 337.586C789.049 337.415 790.094 337.116 791.161 336.69C795.086 335.068 797.049 332.124 797.049 327.858C797.049 326.194 796.686 324.679 795.961 323.314C795.278 321.948 794.276 320.86 792.953 320.05C791.673 319.239 790.244 318.706 788.665 318.45C787.086 318.194 785.316 318.066 783.353 318.066Z" fill="#3DB3D7"/>
<path d="M808.364 294.705H813.1V315.506H837.612V294.705H842.348V342.002H837.612V319.794H813.1V342.002H808.364V294.705Z" fill="#3DB3D7"/>
<path d="M899.987 318.258C899.987 325.084 897.534 330.887 892.627 335.666C887.721 340.444 881.833 342.834 874.963 342.834C868.265 342.834 862.419 340.487 857.427 335.794C852.478 331.058 850.003 325.319 850.003 318.578C850.003 311.751 852.435 305.948 857.299 301.17C862.163 296.391 868.051 294.001 874.963 294.001C881.705 294.001 887.55 296.37 892.499 301.106C897.491 305.799 899.987 311.516 899.987 318.258ZM854.739 318.578C854.739 323.996 856.745 328.647 860.755 332.53C864.809 336.37 869.566 338.29 875.027 338.29C880.617 338.29 885.374 336.348 889.299 332.466C893.267 328.54 895.251 323.804 895.251 318.258C895.251 312.839 893.225 308.21 889.171 304.37C885.161 300.487 880.446 298.546 875.027 298.546C869.395 298.546 864.595 300.508 860.627 304.434C856.702 308.316 854.739 313.031 854.739 318.578Z" fill="#3DB3D7"/>
<path d="M907.676 294.705H931.676V298.994H912.412V342.002H907.676V294.705Z" fill="#3DB3D7"/>
<path d="M984.925 318.258C984.925 325.084 982.472 330.887 977.565 335.666C972.658 340.444 966.77 342.834 959.901 342.834C953.202 342.834 947.357 340.487 942.365 335.794C937.415 331.058 934.941 325.319 934.941 318.578C934.941 311.751 937.373 305.948 942.237 301.17C947.101 296.391 952.989 294.001 959.901 294.001C966.642 294.001 972.488 296.37 977.437 301.106C982.429 305.799 984.925 311.516 984.925 318.258ZM939.677 318.578C939.677 323.996 941.682 328.647 945.693 332.53C949.746 336.37 954.504 338.29 959.965 338.29C965.554 338.29 970.312 336.348 974.237 332.466C978.205 328.54 980.189 323.804 980.189 318.258C980.189 312.839 978.162 308.21 974.109 304.37C970.098 300.487 965.384 298.546 959.965 298.546C954.333 298.546 949.533 300.508 945.565 304.434C941.64 308.316 939.677 313.031 939.677 318.578Z" fill="#3DB3D7"/>
<path d="M478.864 368.706H491.28C494.267 368.706 496.677 368.855 498.512 369.154C500.347 369.41 502.16 370.114 503.952 371.266C508.091 373.869 510.16 377.751 510.16 382.914C510.16 387.565 508.368 391.213 504.784 393.858C503.12 395.095 501.179 395.949 498.96 396.418C497.339 396.759 495.184 396.93 492.496 396.93H483.6V416.002H478.864V368.706ZM491.728 392.642C494.373 392.642 496.357 392.493 497.68 392.194C499.003 391.853 500.197 391.362 501.264 390.722C502.587 389.911 503.611 388.802 504.336 387.394C505.061 385.943 505.424 384.429 505.424 382.85C505.424 378.583 503.461 375.639 499.536 374.018C498.469 373.591 497.424 373.314 496.4 373.186C495.376 373.015 494.16 372.93 492.752 372.93C492.24 372.93 491.728 372.951 491.216 372.994C490.704 372.994 490.192 372.994 489.68 372.994H483.6V392.642H491.728Z" fill="#3DB3D7"/>
<path d="M516.739 368.706H542.595V372.994H521.475V390.018H541.891V394.306H521.475V411.714H542.595V416.002H516.739V368.706Z" fill="#3DB3D7"/>
<path d="M551.051 368.706H558.347L575.627 408.962L592.843 368.706H600.139V416.002H595.403V373.954L577.611 416.002H573.579L555.787 373.954V416.002H551.051V368.706Z" fill="#3DB3D7"/>
<path d="M657.8 392.258C657.8 399.085 655.347 404.887 650.44 409.666C645.533 414.445 639.645 416.834 632.776 416.834C626.077 416.834 620.232 414.487 615.24 409.794C610.291 405.058 607.816 399.319 607.816 392.578C607.816 385.751 610.248 379.949 615.112 375.17C619.976 370.391 625.864 368.002 632.776 368.002C639.517 368.002 645.363 370.37 650.312 375.106C655.304 379.799 657.8 385.517 657.8 392.258ZM612.552 392.578C612.552 397.997 614.557 402.647 618.568 406.53C622.621 410.37 627.379 412.29 632.84 412.29C638.429 412.29 643.187 410.349 647.112 406.466C651.08 402.541 653.064 397.805 653.064 392.258C653.064 386.839 651.037 382.21 646.984 378.37C642.973 374.487 638.259 372.546 632.84 372.546C627.208 372.546 622.408 374.509 618.44 378.434C614.515 382.317 612.552 387.031 612.552 392.578Z" fill="#3DB3D7"/>
<path d="M665.489 368.706H670.225V389.506H694.737V368.706H699.473V416.002H694.737V393.794H670.225V416.002H665.489V368.706Z" fill="#3DB3D7"/>
<path d="M715.576 372.994H704.76V368.706H731.128V372.994H720.312V416.002H715.576V372.994Z" fill="#3DB3D7"/>
<path d="M752.682 368.706H757.93L778.218 416.002H773.098L766.25 400.13H744.234L737.386 416.002H732.266L752.682 368.706ZM764.394 395.842L755.306 374.146L746.09 395.842H764.394Z" fill="#3DB3D7"/>
<path d="M0 579.454V562.65H186.681V240.301L200.458 233V562.65H1080V579.454H0Z" fill="#EF7B25"/>
</svg>
